<svg xmlns="http://www.w3.org/2000/svg" viewBox="0 0 480 320" width="480" height="320" role="img" aria-label="ทำงานดึกหน้าคอมพิวเตอร์"><rect width="480" height="320" rx="12" fill="#FFFFFF"/><circle cx="392" cy="66" r="34" fill="none" stroke="#9DB0AB" stroke-width="3"/><path d="M392,66 L392,42 M392,66 L408,76" stroke="#2F3A38" stroke-width="3" stroke-linecap="round"/><path d="M74,52 A22,22 0 1 0 96,88 A26,26 0 0 1 74,52 Z" fill="#EAF1EF" stroke="#9DB0AB" stroke-width="2.4"/><path d="M120,218 L360,218 M130,218 L130,264 M350,218 L350,264" fill="none" stroke="#2F3A38" stroke-width="3" stroke-linecap="round"/><rect x="224" y="152" width="84" height="62" rx="3" fill="#EAF1EF" stroke="#2F3A38" stroke-width="2.6"/><path d="M214,214 L318,214" stroke="#2F3A38" stroke-width="3" stroke-linecap="round"/><rect x="150" y="188" width="28" height="26" rx="3" fill="none" stroke="#D69E2E" stroke-width="2.6"/><rect x="330" y="196" width="34" height="18" rx="3" fill="none" stroke="#9DB0AB" stroke-width="2.6"/><circle cx="150" cy="121.86000000000001" r="16.387499999999996" fill="none" stroke="#2F3A38" stroke-width="5.243999999999999"/><path d="M150,139.34000000000003 L150,185.22500000000002 L184.95999999999998,185.22500000000002 L184.95999999999998,218 M150,152.45000000000002 L182.77499999999998,172.115" fill="none" stroke="#2F3A38" stroke-width="5.243999999999999" stroke-linecap="round" stroke-linejoin="round"/><path d="M20,286 L460,286" stroke="#9DB0AB" stroke-width="2.6" stroke-linecap="round"/></svg>